Coordinates
version=1
nRows=14
nColumns=24
inDegrees=yes

Units are S.I. units (second, meters, Newtons, ...)
Angles are in degrees.

endheader
time	pelvis_tilt	pelvis_list	pelvis_rotation	pelvis_tx	pelvis_ty	pelvis_tz	hip_flexion_r	hip_adduction_r	hip_rotation_r	knee_angle_r	ankle_angle_r	subtalar_angle_r	mtp_angle_r	hip_flexion_l	hip_adduction_l	hip_rotation_l	knee_angle_l	ankle_angle_l	subtalar_angle_l	mtp_angle_l	lumbar_extension	lumbar_bending	lumbar_rotation
      4.64000000	    -12.30887359	      7.22159438	      4.00718364	     -1.59179545	     -0.03417495	      1.99632008	     17.33213840	    -13.70030946	    -12.23685886	    -60.75880041	    -24.47211083	    -11.95113567	     24.40570984	     29.72904205	     12.30285770	     -5.45416453	    -22.78084627	     -2.42650715	     -6.64234102	     16.95787735	      9.27605465	     -8.78734021	     -3.72498162
      4.65000000	    -12.20570778	      7.22169881	      3.79595836	     -1.57883195	     -0.03192829	      1.99574875	     19.07442607	    -13.44127630	    -11.15643402	    -61.94040517	    -22.94073515	    -12.61462880	     24.73387894	     28.40479329	     12.21112827	     -5.70847521	    -22.19522116	     -1.80896764	     -6.28304941	     17.65642495	      9.14367869	     -8.70448513	     -3.90215708
      4.66000000	    -12.07497426	      7.18916964	      3.62477860	     -1.56599690	     -0.02962721	      1.99514865	     20.74292945	    -13.12053712	    -10.14716211	    -62.80768778	    -21.41068872	    -12.75243926	     25.40399653	     26.99032200	     12.13729613	     -5.79166857	    -21.49356689	     -1.26600948	     -5.98026140	     18.13599086	      8.96407866	     -8.59324641	     -4.11682048
      4.67000000	    -11.92822707	      7.10278393	      3.41932868	     -1.55331202	     -0.02731912	      1.99453641	     22.36178003	    -12.69125079	     -9.13687749	    -63.34665377	    -20.00960127	    -12.54616588	     26.77639657	     25.50844079	     12.03783902	     -5.73138729	    -20.67423486	     -0.80995283	     -5.85771958	     18.41071145	      8.75979965	     -8.40733031	     -4.27320753
      4.68000000	    -11.81383833	      6.90832973	      3.38924235	     -1.54065999	     -0.02511808	      1.99374969	     23.86647838	    -12.20182206	     -8.42190167	    -63.56668648	    -18.38272021	    -12.05649177	     27.52427577	     24.03382954	     11.91046322	     -5.48693392	    -19.83039107	     -0.31495691	     -5.66438349	     18.39107260	      8.57346946	     -8.14864492	     -4.65172949
      4.69000000	    -11.64507781	      6.64988459	      3.31061178	     -1.52807052	     -0.02289126	      1.99286885	     25.22001895	    -11.63108806	     -7.76430704	    -63.37486267	    -17.15492405	    -11.66639617	     30.25129785	     22.47589266	     11.73058165	     -5.15414931	    -18.93271727	      0.22792459	     -5.59498152	     17.52295877	      8.33869073	     -7.79025936	     -4.94011917
      4.70000000	    -11.58496202	      6.33676882	      3.29072405	     -1.51564127	     -0.02097302	      1.99205315	     26.63236678	    -11.00980817	     -7.25279408	    -62.99720933	    -15.60968740	    -11.15769658	     30.63979204	     21.07177948	     11.48983183	     -4.83777401	    -18.05249321	      0.62281260	     -5.53254853	     17.40880347	      8.19810312	     -7.40912269	     -5.26830638
      4.71000000	    -11.37319181	      5.97246076	      3.30171158	     -1.50330061	     -0.01898763	      1.99115708	     27.75167659	    -10.37507226	     -6.92923824	    -62.26548527	    -14.26800100	    -10.80798138	     31.36370803	     19.50361902	     11.21489789	     -4.40280520	    -17.16335813	      1.00268619	     -5.58022890	     16.73939127	      7.87756864	     -6.96518803	     -5.61703332
      4.72000000	    -11.36666848	      5.56303736	      3.43910330	     -1.49110176	     -0.01747506	      1.99017656	     29.01361080	     -9.78764561	     -6.81751160	    -61.32443045	    -12.97888005	    -10.53009103	     31.59427070	     18.22583297	     10.90289365	     -4.01040182	    -16.37460530	      1.39103515	     -5.47453961	     16.49666228	      7.75817156	     -6.51123086	     -6.03433734
      4.73000000	    -11.23146981	      5.12396914	      3.63205443	     -1.47893003	     -0.01595589	      1.98912224	     30.01283550	     -9.25163887	     -6.93305431	    -60.08392789	    -11.89220875	    -10.39556777	     31.56798467	     16.79907769	     10.56818674	     -3.53530536	    -15.55658861	      1.73702242	     -5.45907610	     16.09490702	      7.49164805	     -6.02844318	     -6.49190269
      4.74000000	    -11.10292465	      4.71629465	      3.80089693	     -1.46679405	     -0.01465745	      1.98818619	     30.96675086	     -8.75560383	     -7.10321977	    -58.66586852	    -10.83648962	    -10.29381131	     30.11921327	     15.39942331	     10.23504558	     -3.13663031	    -14.78690232	      2.30892265	     -5.28181479	     14.61912926	      7.23113922	     -5.58040622	     -6.86650747
      4.75000000	    -11.04049981	      4.27383471	      4.12521095	     -1.45471466	     -0.01362675	      1.98707652	     31.85585460	     -8.37056610	     -7.54627721	    -56.96862055	    -10.06489419	    -10.32256243	     29.76964128	     14.09257062	      9.88085462	     -2.72131581	    -14.00162238	      2.62470660	     -5.15365319	     14.56676215	      7.02927824	     -5.12280388	     -7.38044609
      4.76000000	    -10.91487589	      3.90118777	      4.35311027	     -1.44263031	     -0.01276193	      1.98623274	     32.63246074	     -7.98511605	     -7.88374624	    -55.15665272	     -9.06011776	    -10.10120235	     27.25313913	     12.70733341	      9.54218541	     -2.45344609	    -13.18130334	      2.98184319	     -4.96019064	     14.28478146	      6.76558748	     -4.72858588	     -7.74955182
      4.77000000	    -10.89121349	      3.49426544	      4.69552361	     -1.43061616	     -0.01221057	      1.98527761	     33.38502186	     -7.67623104	     -8.40995344	    -53.05721371	     -8.41823311	    -10.00908429	     26.87713652	     11.47316396	      9.18176525	     -2.13656273	    -12.41236351	      3.31380795	     -4.74878317	     14.29837358	      6.60195264	     -4.32060351	     -8.22474917
